# xmcd
#
# Track frame offsets:
#	150
#	17850
#	36788
#	51751
#	71336
#	85074
#	101725
#	118900
#	134037
#	148700
#	164392
#	183407
#	200592
#	225718
#
# Disc length: 3505 seconds
#
# Revision: 6
# Processed by: cddbd v1.5.2PL0 Copyright (c) Steve Scherf et al.
# Submitted via: EZCDAudioConverter 1.2.3.1
#
DISCID=cb0daf0e
DTITLE=Александр Панайотов - Леди дождя
DYEAR=2006
DGENRE=Джаз-блюз
TTITLE0=Леди дождя
TTITLE1=Arrivederci
TTITLE2=Киев-Москва
TTITLE3=Цветы под снегом (с Л. Долиной)
TTITLE4=Балалайка (с А. Чумаковым)
TTITLE5=Только да
TTITLE6=Лунная мелодия (с Л. Долиной)
TTITLE7=Серые глаза
TTITLE8=На краю
TTITLE9=Я тебе не верю
TTITLE10=Голос
TTITLE11=Необыкновенная (с А. Чумаковым, Р. Алехно)
TTITLE12=Скажите, девушки (с Неополетанским ансамблем им. Н. Д. Мисаилова)
TTITLE13=Клипы
EXTD=
EXTT0=
EXTT1=
EXTT2=
EXTT3=
EXTT4=
EXTT5=
EXTT6=
EXTT7=
EXTT8=
EXTT9=
EXTT10=
EXTT11=
EXTT12=
EXTT13=
PLAYORDER=
